# xmcd CD database file
#
# Track frame offsets:
#	150
#	20824
#	47556
#	60306
#	82595
#	110589
#	137184
#	161646
#	197612
#	204093
#
# Disc length: 3134 seconds
#
# Revision: 0
# Processed by: cddbd v1.4PL0 Copyright (c) Steve Scherf et al.
# Submitted via: CDex 1.51
#
DISCID=7a0c3c0a
DTITLE=Oto Haverla - misia zeme (The mission of the earth )
DYEAR=1999
DGENRE=New Age
TTITLE0=kral izraela
TTITLE1=misia zeme
TTITLE2=Maria pod krizom
TTITLE3=moja vina
TTITLE4=daruj pokoj
TTITLE5=pane boze
TTITLE6=posledne zvonenie
TTITLE7=prid pane
TTITLE8=daruj pokoj
TTITLE9=chvalme BOHA
EXTD=YEAR: 1999
EXTT0=
EXTT1=
EXTT2=
EXTT3=
EXTT4=
EXTT5=
EXTT6=
EXTT7=
EXTT8=
EXTT9=
PLAYORDER=
